<svg width="171" height="185" viewBox="0 0 171 185" fill="none" xmlns="http://www.w3.org/2000/svg">
<path d="M25.2686 108.01C25.2686 107.381 25.291 106.797 25.3359 106.258C25.3809 105.764 25.4258 105.27 25.4707 104.775C25.5605 104.326 25.6504 103.81 25.7402 103.226C25.875 102.642 26.0547 101.923 26.2793 101.069C26.7285 100.306 27.1104 99.5195 27.4248 98.7109C27.7393 97.9473 28.0312 97.1836 28.3008 96.4199C28.6152 95.6562 28.9297 94.8926 29.2441 94.1289C29.6035 93.3652 30.0527 92.6016 30.5918 91.8379C32.3438 89.2324 34.2754 86.7842 36.3867 84.4932C38.543 82.2471 40.7666 80.0908 43.0576 78.0244L45.8203 57.001L36.4541 78.3613C36.2295 78.8555 35.8926 79.4844 35.4434 80.248C35.0391 80.9668 34.5449 81.6855 33.9609 82.4043C33.4219 83.123 32.8154 83.7295 32.116 84.2236C31.5127 84.7178 30.8613 84.9648 30.1875 84.9648C29.6484 84.9648 29.1992 84.6953 28.8398 84.1562C28.4805 83.6172 28.2109 82.9658 28.0312 82.2021C27.8516 81.4834 27.7168 80.7646 27.627 80.0459C27.582 79.2822 27.5596 78.7207 27.5596 78.3613C27.5596 78.2715 27.5596 78.1143 27.5596 77.8896C27.6045 77.6201 27.627 77.4629 27.627 77.418C27.6719 76.6543 27.7617 75.6211 27.8965 74.3184C28.0762 73.0156 28.2334 71.7354 28.3682 70.4775C28.5029 69.2197 28.6152 68.1191 28.7051 67.1758C28.7949 66.2324 28.8623 65.6934 28.9072 65.5586L35.8477 35.0342V33.5518C35.8477 32.833 35.8027 32.1143 35.7129 31.3955C35.668 30.6768 35.5107 30.0703 35.2412 29.5762C35.0166 29.0371 34.6572 28.6104 34.1631 28.2959C33.6689 27.9365 32.9502 27.7568 32.0068 27.7568C31.2432 27.7568 30.2998 27.9814 29.1768 28.4307C28.0986 28.835 27.2451 29.2617 26.6162 29.7109C26.2568 29.9805 25.7178 30.3623 24.999 30.8564C24.2803 31.3506 23.584 31.8672 22.9102 32.4062C22.2363 32.9453 21.6299 33.4395 21.0908 33.8887C20.5518 34.293 20.2148 34.5625 20.0801 34.6973L4.91895 49.4541C4.60449 49.7686 4.26758 49.9707 3.9082 50.0605C3.54883 50.1504 3.16699 50.1953 2.7627 50.1953C2.22363 50.1953 1.8418 50.083 1.61719 49.8584C1.4375 49.5889 1.34766 49.1621 1.34766 48.5781C1.34766 48.1738 1.37012 47.6797 1.41504 47.0957C1.45996 46.4668 1.57227 45.8828 1.75195 45.3438C1.97656 44.7598 2.24609 44.2656 2.56055 43.8613C2.875 43.4121 3.2793 43.1875 3.77344 43.1875C3.99805 43.1875 4.17773 43.2549 4.3125 43.3896C4.49219 43.5244 4.62695 43.6816 4.7168 43.8613C4.85156 44.041 4.96387 44.2207 5.05371 44.4004C5.14355 44.5352 5.25586 44.6025 5.39062 44.6025H5.52539C5.57031 44.6025 5.59277 44.5801 5.59277 44.5352L20.0801 30.7217C20.8887 29.958 21.8096 29.1719 22.8428 28.3633C23.876 27.5547 24.9541 26.8584 26.0771 26.2744C27.2451 25.6455 28.4355 25.1289 29.6484 24.7246C30.9062 24.3203 32.1416 24.1182 33.3545 24.1182C34.3428 24.1182 35.2637 24.3877 36.1172 24.9268C36.9707 25.4209 37.6895 26.0723 38.2734 26.8809C38.9023 27.6445 39.3516 28.5205 39.6211 29.5088C39.8906 30.4521 39.9131 31.418 39.6885 32.4062L31.8047 71.4209C31.7148 72.1396 31.6475 72.7686 31.6025 73.3076C31.5576 73.8018 31.5352 74.2959 31.5352 74.79C31.5352 75.2842 31.5576 75.8008 31.6025 76.3398C31.6475 76.8789 31.6699 77.5303 31.6699 78.2939C31.8496 78.2939 31.917 78.3389 31.8721 78.4287C31.8721 78.4736 31.9844 78.3389 32.209 78.0244C32.3438 77.7549 32.5459 77.4404 32.8154 77.0811C33.085 76.6768 33.332 76.2949 33.5566 75.9355C33.8262 75.5312 34.0508 75.1943 34.2305 74.9248C34.4102 74.6104 34.5 74.4531 34.5 74.4531L50.2676 38.2686C50.4922 37.8643 50.6943 37.6621 50.874 37.6621C51.0986 37.6172 51.3682 37.5947 51.6826 37.5947C52.1318 37.5947 52.6035 37.707 53.0977 37.9316C53.6367 38.1113 53.9062 38.4932 53.9062 39.0771V39.6162L48.3135 65.5586C47.999 66.8164 47.7969 67.9844 47.707 69.0625C47.6172 70.1406 47.5723 71.2637 47.5723 72.4316V74.1162C48.291 73.5771 49.1895 72.9932 50.2676 72.3643C51.3457 71.7354 52.5361 71.1289 53.8389 70.5449C55.1416 69.916 56.5117 69.3096 57.9492 68.7256C59.3867 68.1416 60.7568 67.6475 62.0596 67.2432C63.4072 66.7939 64.665 66.4346 65.833 66.165C67.001 65.8955 67.9893 65.7607 68.7979 65.7607C69.0674 65.7607 69.4043 65.8057 69.8086 65.8955C70.2578 65.9404 70.6621 66.0527 71.0215 66.2324C71.4258 66.3672 71.7627 66.5693 72.0322 66.8389C72.3018 67.1084 72.4365 67.4453 72.4365 67.8496C72.4365 68.1191 72.3467 68.4561 72.167 68.8604C72.0322 69.2646 71.7852 69.4219 71.4258 69.332C71.3359 69.332 71.1113 69.2422 70.752 69.0625C70.3926 68.8379 70.168 68.7256 70.0781 68.7256C69.9883 68.7256 69.8086 68.748 69.5391 68.793C69.3145 68.8379 69.0449 68.8828 68.7305 68.9277C68.4609 68.9727 68.1914 69.04 67.9219 69.1299C67.6973 69.2197 67.54 69.2871 67.4502 69.332C65.6533 69.5117 63.7666 69.8711 61.79 70.4102C59.8135 70.9043 57.8818 71.5557 55.9951 72.3643C54.1533 73.1729 52.4688 74.1387 50.9414 75.2617C49.4141 76.3398 48.2012 77.5977 47.3027 79.0352L46.9658 79.9785C46.9658 79.9785 46.9434 80.4727 46.8984 81.4609C46.8535 82.4492 46.7861 83.5947 46.6963 84.8975C46.6514 86.2451 46.584 87.6152 46.4941 89.0078C46.4043 90.4453 46.3594 91.6133 46.3594 92.5117V94.1289L44.3379 108.279C44.1133 109.627 43.709 111.02 43.125 112.457C42.5859 113.895 41.8672 115.197 40.9688 116.365C40.0703 117.578 38.9922 118.566 37.7344 119.33C36.4766 120.139 35.084 120.543 33.5566 120.543C33.377 120.543 33.04 120.521 32.5459 120.476C32.0518 120.476 31.7148 120.476 31.5352 120.476C30.3223 120.116 29.3115 119.465 28.5029 118.521C27.7393 117.578 27.1104 116.478 26.6162 115.22C26.1221 114.007 25.7627 112.749 25.5381 111.446C25.3584 110.188 25.2686 109.043 25.2686 108.01ZM28.8398 107.808C28.8398 108.392 28.9072 109.2 29.042 110.233C29.1768 111.267 29.4014 112.255 29.7158 113.198C30.0752 114.187 30.5244 115.04 31.0635 115.759C31.6475 116.478 32.4111 116.837 33.3545 116.837C34.3428 116.837 35.2412 116.522 36.0498 115.894C36.8584 115.31 37.5547 114.568 38.1387 113.67C38.7676 112.771 39.2842 111.806 39.6885 110.772C40.0928 109.739 40.3398 108.796 40.4297 107.942L42.7207 87.1885V83.3477C41.0586 84.8301 39.374 86.4922 37.667 88.334C36.0049 90.1758 34.5225 92.1299 33.2197 94.1963C31.917 96.3076 30.8613 98.4863 30.0527 100.732C29.2441 103.023 28.8398 105.382 28.8398 107.808Z" fill="#3897D3"/>
<path d="M77.7676 79.0352C77.6777 79.3496 77.4082 79.6641 76.959 79.9785C76.5098 80.248 76.1055 80.3828 75.7461 80.3828C75.2969 80.3828 74.915 80.2256 74.6006 79.9111C74.2861 79.5967 74.1289 79.2148 74.1289 78.7656C74.1289 78.7207 74.1289 78.6084 74.1289 78.4287C74.1738 78.249 74.1963 78.1367 74.1963 78.0918L78.3066 61.6504H77.7676C76.1055 62.3242 74.5332 62.9307 73.0508 63.4697C71.5684 64.0088 69.9736 64.2783 68.2666 64.2783C67.5479 64.2783 66.874 64.1436 66.2451 63.874C65.6611 63.5596 65.1445 63.1553 64.6953 62.6611C64.291 62.1221 63.9541 61.5381 63.6846 60.9092C63.46 60.2354 63.3477 59.5391 63.3477 58.8203C63.3477 57.4277 63.5947 56.0801 64.0889 54.7773C64.583 53.4297 65.2793 52.2393 66.1777 51.2061C67.1211 50.1729 68.1992 49.3418 69.4121 48.7129C70.6699 48.084 72.04 47.7695 73.5225 47.7695C74.6904 47.7695 75.8359 47.9268 76.959 48.2412C78.082 48.5107 79.1152 49.0273 80.0586 49.791L80.665 48.4434L83.6299 29.4414C83.7197 29.082 83.9668 28.7227 84.3711 28.3633C84.7754 27.959 85.1348 27.7568 85.4492 27.7568C86.2578 27.7568 86.8193 28.0938 87.1338 28.7676C87.4932 29.3965 87.6729 30.0703 87.6729 30.7891V31.0586L83.9668 52.4863V53.9688C84.0566 53.9688 84.124 53.9912 84.1689 54.0361C84.2588 54.0811 84.3262 54.0811 84.3711 54.0361C84.416 54.0361 84.5059 53.9912 84.6406 53.9014C84.8203 53.7666 85 53.6318 85.1797 53.4971C85.4043 53.3623 85.6064 53.2275 85.7861 53.0928C86.0107 52.958 86.168 52.8457 86.2578 52.7559C86.3027 52.7559 86.3701 52.7334 86.46 52.6885C86.5498 52.5986 86.6172 52.5312 86.6621 52.4863C89.4922 50.4199 92.2998 48.2861 95.085 46.085C97.915 43.8838 100.565 41.5029 103.036 38.9424C103.351 38.6279 103.822 37.999 104.451 37.0557C105.08 36.0674 105.754 35.0566 106.473 34.0234C107.236 32.9902 107.955 32.0693 108.629 31.2607C109.303 30.4521 109.864 30.0479 110.313 30.0479C110.763 30.0479 111.145 30.2051 111.459 30.5195C111.818 30.834 111.998 31.2383 111.998 31.7324C111.998 31.8223 111.976 31.8896 111.931 31.9346C111.931 31.9795 111.931 32.0244 111.931 32.0693C111.931 32.1592 111.886 32.3389 111.796 32.6084C111.706 32.833 111.639 32.9902 111.594 33.0801C111.459 33.3496 111.234 33.7314 110.92 34.2256C110.65 34.6748 110.358 35.124 110.044 35.5732C109.774 36.0225 109.527 36.4268 109.303 36.7861C109.078 37.1006 108.966 37.2803 108.966 37.3252L100.476 45.8828L84.9775 57.3379C84.7979 57.5176 84.6855 57.6523 84.6406 57.7422C84.6406 57.7871 84.6406 57.9219 84.6406 58.1465V58.4834C84.6406 58.5732 84.6631 58.6406 84.708 58.6855L97.4434 77.8896C97.5332 78.2939 97.6904 78.6309 97.915 78.9004C98.1396 79.1699 98.3643 79.4395 98.5889 79.709C98.8135 79.9336 98.9932 80.2031 99.1279 80.5176C99.3076 80.7871 99.3975 81.124 99.3975 81.5283C99.3975 82.0225 99.3076 82.292 99.1279 82.3369C98.9932 82.4268 98.6787 82.4717 98.1846 82.4717C97.6904 82.4717 97.2188 82.3369 96.7695 82.0674C96.3203 81.7979 95.8936 81.4609 95.4893 81.0566C95.085 80.6074 94.7256 80.1357 94.4111 79.6416C94.1416 79.1025 93.9395 78.6309 93.8047 78.2266L82.0801 63.6045L77.7676 79.0352ZM66.582 57.877C66.582 58.6855 66.7617 59.4268 67.1211 60.1006C67.4805 60.7295 68.1094 61.0439 69.0078 61.0439C69.9062 61.0439 70.8047 60.9316 71.7031 60.707C72.6016 60.4824 73.4775 60.1904 74.3311 59.8311C75.1846 59.4717 76.0156 59.0674 76.8242 58.6182C77.6328 58.1689 78.3965 57.7422 79.1152 57.3379C79.1152 57.248 79.1152 57.0684 79.1152 56.7988C79.1602 56.4844 79.1826 56.3047 79.1826 56.2598C79.1826 55.4961 78.9805 54.8223 78.5762 54.2383C78.2168 53.6094 77.7451 53.0928 77.1611 52.6885C76.6221 52.2393 75.9932 51.9248 75.2744 51.7451C74.6006 51.5205 73.9268 51.4082 73.2529 51.4082C72.3545 51.4082 71.501 51.5654 70.6924 51.8799C69.8838 52.1943 69.165 52.6436 68.5361 53.2275C67.9521 53.8115 67.4805 54.5078 67.1211 55.3164C66.7617 56.0801 66.582 56.9336 66.582 57.877Z" fill="#3897D3"/>
</svg>
